<svg xmlns="http://www.w3.org/2000/svg" width="132.001" height="93.178" viewBox="0 0 132.001 93.178">
  <g id="Quotemarks-left" transform="translate(-0.001 -9.412)" opacity="0.43">
    <path id="Path_5" data-name="Path 5" d="M66.686,44.091c-.266-2.874-.062-10.687,7.422-21.552a2.061,2.061,0,0,0-.24-2.629c-3.052-3.052-4.941-4.977-6.266-6.325C65.86,11.809,65.065,11,63.9,9.944a2.067,2.067,0,0,0-2.739-.026C48.115,21.27,33.625,44.728,35.721,73.467,36.95,90.342,49.259,102.59,64.988,102.59a29.274,29.274,0,0,0,1.7-58.5Zm-1.7,54.374c-13.507,0-24.084-10.639-25.154-25.3v0C37.476,40.844,56.689,19.85,62.495,14.291c.566.558,1.213,1.214,2.165,2.185,1.148,1.168,2.719,2.768,5.1,5.152-9.086,14-7.372,23.973-6.621,25.4a2.136,2.136,0,0,0,1.853,1.136,25.148,25.148,0,1,1,0,50.3Z" transform="translate(37.739)" fill="#69b178"/>
    <path id="Path_6" data-name="Path 6" d="M31.172,44.091c-.268-2.866-.071-10.673,7.422-21.552a2.064,2.064,0,0,0-.24-2.629c-3.046-3.046-4.933-4.969-6.256-6.317-1.748-1.781-2.546-2.592-3.71-3.65a2.072,2.072,0,0,0-2.739-.028C12.6,21.268-1.889,44.721.2,73.466v0C1.436,90.341,13.747,102.59,29.476,102.59a29.274,29.274,0,0,0,1.7-58.5Zm-1.7,54.374c-13.505,0-24.088-10.639-25.16-25.3v0c-2.353-32.33,16.861-53.32,22.666-58.878.568.558,1.217,1.219,2.171,2.191,1.146,1.168,2.715,2.765,5.088,5.146-9.086,14-7.372,23.973-6.621,25.4a2.141,2.141,0,0,0,1.855,1.138,25.148,25.148,0,1,1,0,50.3Z" transform="translate(0 0)" fill="#69b178"/>
  </g>
</svg>
